<svg width="1559" height="828" viewBox="0 0 1559 828" fill="none" xmlns="http://www.w3.org/2000/svg">
<g clip-path="url(#clip0)">
<path fill-rule="evenodd" clip-rule="evenodd" d="M1555.2 136.325C1559.31 140.433 1559.31 147.093 1555.2 151.2L1388.71 317.633C1384.6 321.741 1377.94 321.741 1373.83 317.633C1369.72 313.526 1369.72 306.867 1373.83 302.759L1540.32 136.325C1544.43 132.218 1551.09 132.218 1555.2 136.325Z" fill="#F15C2B"/>
<path fill-rule="evenodd" clip-rule="evenodd" d="M283.102 453.206C287.211 457.314 287.211 463.974 283.102 468.081L18.612 732.514C14.504 736.622 7.842 736.622 3.733 732.514C-0.376005 728.407 -0.376005 721.747 3.733 717.64L268.223 453.206C272.331 449.099 278.993 449.099 283.102 453.206Z" fill="#F15C2B"/>
<path opacity="0.2" fill-rule="evenodd" clip-rule="evenodd" d="M1361.3 87.407C1365.41 91.515 1365.41 98.174 1361.3 102.282L1088.81 374.715C1084.7 378.822 1078.04 378.822 1073.93 374.715C1069.82 370.608 1069.82 363.948 1073.93 359.841L1346.42 87.407C1350.53 83.3 1357.19 83.3 1361.3 87.407Z" fill="#F15C2B"/>
<path opacity="0.2" fill-rule="evenodd" clip-rule="evenodd" d="M1311.3 377.407C1315.41 381.515 1315.41 388.174 1311.3 392.282L1038.81 664.715C1034.7 668.823 1028.04 668.823 1023.93 664.715C1019.82 660.607 1019.82 653.948 1023.93 649.841L1296.42 377.407C1300.53 373.3 1307.19 373.3 1311.3 377.407Z" fill="#F15C2B"/>
<path fill-rule="evenodd" clip-rule="evenodd" d="M1531.3 537.407C1535.41 541.515 1535.41 548.174 1531.3 552.282L1258.81 824.715C1254.7 828.823 1248.04 828.823 1243.93 824.715C1239.82 820.607 1239.82 813.948 1243.93 809.841L1516.42 537.407C1520.53 533.3 1527.19 533.3 1531.3 537.407Z" fill="#F15C2B"/>
<path opacity="0.169" fill-rule="evenodd" clip-rule="evenodd" d="M1391.3 547.407C1395.41 551.515 1395.41 558.174 1391.3 562.282L1301.81 651.715C1297.7 655.823 1291.04 655.823 1286.93 651.715C1282.82 647.607 1282.82 640.948 1286.93 636.841L1376.42 547.407C1380.53 543.3 1387.19 543.3 1391.3 547.407Z" fill="#F15C2B"/>
<path opacity="0.2" fill-rule="evenodd" clip-rule="evenodd" d="M361.3 150.407C365.409 154.515 365.409 161.175 361.3 165.282L88.811 437.715C84.702 441.822 78.04 441.822 73.931 437.715C69.823 433.608 69.823 426.948 73.931 422.841L346.421 150.407C350.53 146.3 357.192 146.3 361.3 150.407Z" fill="#F15C2B"/>
<path opacity="0.2" fill-rule="evenodd" clip-rule="evenodd" d="M388.3 554.407C392.41 558.515 392.41 565.175 388.3 569.282L182.811 774.715C178.702 778.823 172.04 778.823 167.931 774.715C163.823 770.607 163.823 763.948 167.931 759.841L373.421 554.407C377.53 550.3 384.192 550.3 388.3 554.407Z" fill="#F15C2B"/>
<path opacity="0.2" fill-rule="evenodd" clip-rule="evenodd" d="M1096.88 3.05102C1101.01 7.14002 1101.01 13.77 1096.88 17.86L805.04 294.916C800.915 299.006 794.226 299.006 790.1 294.916C785.975 290.827 785.975 284.196 790.1 280.107L1081.94 3.05102C1086.07 -1.03898 1092.76 -1.03898 1096.88 3.05102Z" fill="#F15C2B"/>
</g>
<defs>
<clipPath id="clip0">
<rect width="1559" height="828" fill="white"/>
</clipPath>
</defs>
</svg>
